<mxfile host="app.diagrams.net" modified="2023-06-11T09:06:25.696Z" agent="Mozilla/5.0 (Macintosh; Intel Mac OS X 10_15_7) AppleWebKit/605.1.15 (KHTML, like Gecko) Version/16.3 Safari/605.1.15" version="21.3.8" etag="MRkKSo2i4Rnt0SgVLtut" type="github">
  <diagram name="Page-1" id="ntlGM-5W1xtXFzn5HvtR">
    <mxGraphModel>
      <root>
        <mxCell id="0" />
        <mxCell id="1" parent="0" />
      </root>
    </mxGraphModel>
  </diagram>
</mxfile>
